<svg width="128" height="24" viewBox="0 0 128 24" fill="none" xmlns="http://www.w3.org/2000/svg">
<path d="M1.17188 19H9.73011C13.6808 19 16.1222 16.8427 16.1222 13.8509C16.1222 11.2852 14.2312 9.60724 11.8963 9.51847V9.34091C14.0004 8.92365 15.4119 7.37003 15.4119 5.36364C15.4119 2.59375 13.2102 0.818181 9.0554 0.818181H1.17188V19ZM6.10795 15.0582V11.223H8.48722C9.98757 11.223 10.902 11.9332 10.902 13.2116C10.902 14.4279 10.0763 15.0582 8.41619 15.0582H6.10795ZM6.10795 8.16903V4.68892H8.20312C9.42827 4.68892 10.3338 5.31037 10.3338 6.42898C10.3338 7.54759 9.42827 8.16903 8.1321 8.16903H6.10795ZM23.0072 0.818181H18.0711V19H23.0072V0.818181ZM25.6175 19H40.4613V15.0227H31.903L40.4968 3.55256V0.818181H25.653V4.79545H34.2113L25.6175 16.2656V19ZM48.3961 0.818181H42.8563L48.254 9.90909L42.6787 19H48.2895L51.379 13.6023H51.5211L54.6106 19H60.2569L54.6106 9.90909L60.0438 0.818181H54.5395L51.5211 6.10938H51.379L48.3961 0.818181ZM62.3723 19H67.3083V13.6023H70.0427C74.1887 13.6023 76.9674 11.1609 76.9674 7.24574C76.9674 3.375 74.2597 0.818181 70.2203 0.818181H62.3723V19ZM67.3083 9.76705V4.75994H69.0484C70.7796 4.75994 71.8183 5.68324 71.8183 7.24574C71.8183 8.79936 70.7796 9.76705 69.0484 9.76705H67.3083ZM78.9785 19H92.0467V15.0227H83.9146V11.8977H91.4075V7.92045H83.9146V4.79545H92.0822V0.818181H78.9785V19ZM94.7303 19H99.6664V12.9986H101.371L104.567 19H109.929L106.236 12.2173C108.171 11.2852 109.325 9.51847 109.325 6.99716C109.325 3.12642 106.618 0.818181 102.578 0.818181H94.7303V19ZM99.6664 9.16335V4.75994H101.406C103.138 4.75994 104.176 5.43466 104.176 6.99716C104.176 8.55078 103.138 9.16335 101.406 9.16335H99.6664ZM111.132 4.79545H116.601V19H121.466V4.79545H126.935V0.818181H111.132V4.79545Z" fill="#BD92D7"/>
</svg>
